<svg xmlns="http://www.w3.org/2000/svg" width="120" height="132" fill="none" viewBox="0 0 120 132"><g filter="url(#a)"><mask id="b" width="50" height="66" x="35" y="27" maskUnits="userSpaceOnUse" style="mask-type:alpha"><path fill="#D9D9D9" d="M35 86.204V32.797A5.797 5.797 0 0 1 40.796 27h27.525a5.8 5.8 0 0 1 4.09 1.688L83.292 39.52A5.796 5.796 0 0 1 85 43.628v42.576A5.796 5.796 0 0 1 79.203 92H40.796A5.796 5.796 0 0 1 35 86.204Z"/></mask><g mask="url(#b)"><path fill="url(#c)" d="M35 86V33a6 6 0 0 1 6-6h27.158a6 6 0 0 1 4.219 1.734l10.842 10.724A6 6 0 0 1 85 43.724V86a6 6 0 0 1-6 6H41a6 6 0 0 1-6-6Z"/><path fill="#fff" fill-rule="evenodd" d="m72.367 28.744-1.397 1.412A4 4 0 0 0 68.159 29H41a4 4 0 0 0-4 4v53a4 4 0 0 0 4 4h38a4 4 0 0 0 4-4V43.724a4 4 0 0 0-1.187-2.844L70.97 30.156l1.397-1.412ZM35 33v53a6 6 0 0 0 6 6h38a6 6 0 0 0 6-6V43.724a6 6 0 0 0-1.78-4.266L72.376 28.734A6 6 0 0 0 68.157 27H41a6 6 0 0 0-6 6Z" clip-rule="evenodd"/><path fill="url(#d)" fill-rule="evenodd" d="M36 33v53a5 5 0 0 0 5 5h38a5 5 0 0 0 5-5V43.724a5 5 0 0 0-1.484-3.555L71.674 29.445A5 5 0 0 0 68.158 28H41a5 5 0 0 0-5 5Zm-1 0v53a6 6 0 0 0 6 6h38a6 6 0 0 0 6-6V43.724a6 6 0 0 0-1.78-4.266L72.376 28.734A6 6 0 0 0 68.157 27H41a6 6 0 0 0-6 6Z" clip-rule="evenodd"/><path fill="#C7C7C7" d="M54.199 52.933a2.933 2.933 0 1 1-5.866 0 2.933 2.933 0 0 1 5.866 0Zm17.944 0a2.933 2.933 0 1 1-5.866 0 2.933 2.933 0 0 1 5.866 0Z"/><path fill="#C7C7C7" fill-rule="evenodd" d="M60.14 64.365c-4.986 0-9.426 2.761-12.019 7.04a1.682 1.682 0 1 1-2.877-1.744C48.38 64.487 53.854 61 60.14 61c6.285 0 11.76 3.487 14.896 8.66a1.682 1.682 0 1 1-2.877 1.745c-2.593-4.279-7.033-7.04-12.02-7.04Z" clip-rule="evenodd"/><g filter="url(#e)"><path fill="url(#f)" d="M89 42 70 23v12.376A6.624 6.624 0 0 0 76.624 42H89Z"/></g><g filter="url(#g)"><path fill="#fff" fill-rule="evenodd" d="M70 23v12.376A6.624 6.624 0 0 0 76.624 42H89L70 23Zm2 4.828v7.548A4.624 4.624 0 0 0 76.624 40h7.548L72 27.828Z" clip-rule="evenodd"/></g><path fill="url(#h)" fill-rule="evenodd" d="M70 23v12.376A6.624 6.624 0 0 0 76.624 42H89L70 23Zm1 2.414v9.962A5.624 5.624 0 0 0 76.624 41h9.962L71 25.414Z" clip-rule="evenodd"/></g></g><defs><filter id="a" width="160" height="160" x="-20" y="0" color-interpolation-filters="sRGB" filterUnits="userSpaceOnUse"><feFlood flood-opacity="0" result="BackgroundImageFix"/><feColorMatrix in="SourceAlpha" result="hardAlpha" values="0 0 0 0 0 0 0 0 0 0 0 0 0 0 0 0 0 0 127 0"/><feMorphology in="SourceAlpha" radius="6" result="effect1_dropShadow_52_23983"/><feOffset dy="8"/><feGaussianBlur stdDeviation="5"/><feComposite in2="hardAlpha" operator="out"/><feColorMatrix values="0 0 0 0 0 0 0 0 0 0 0 0 0 0 0 0 0 0 0.1 0"/><feBlend in2="BackgroundImageFix" result="effect1_dropShadow_52_23983"/><feColorMatrix in="SourceAlpha" result="hardAlpha" values="0 0 0 0 0 0 0 0 0 0 0 0 0 0 0 0 0 0 127 0"/><feMorphology in="SourceAlpha" radius="5" result="effect2_dropShadow_52_23983"/><feOffset dy="20"/><feGaussianBlur stdDeviation="12.5"/><feComposite in2="hardAlpha" operator="out"/><feColorMatrix values="0 0 0 0 0 0 0 0 0 0 0 0 0 0 0 0 0 0 0.1 0"/><feBlend in2="effect1_dropShadow_52_23983" result="effect2_dropShadow_52_23983"/><feBlend in="SourceGraphic" in2="effect2_dropShadow_52_23983" result="shape"/></filter><filter id="e" width="43" height="43" x="58" y="14" color-interpolation-filters="sRGB" filterUnits="userSpaceOnUse"><feFlood flood-opacity="0" result="BackgroundImageFix"/><feColorMatrix in="SourceAlpha" result="hardAlpha" values="0 0 0 0 0 0 0 0 0 0 0 0 0 0 0 0 0 0 127 0"/><feOffset dy="3"/><feGaussianBlur stdDeviation="6"/><feComposite in2="hardAlpha" operator="out"/><feColorMatrix values="0 0 0 0 0.34902 0 0 0 0 0.364706 0 0 0 0 0.4 0 0 0 0.2 0"/><feBlend in2="BackgroundImageFix" result="effect1_dropShadow_52_23983"/><feBlend in="SourceGraphic" in2="effect1_dropShadow_52_23983" result="shape"/></filter><filter id="g" width="43" height="43" x="58" y="14" color-interpolation-filters="sRGB" filterUnits="userSpaceOnUse"><feFlood flood-opacity="0" result="BackgroundImageFix"/><feColorMatrix in="SourceAlpha" result="hardAlpha" values="0 0 0 0 0 0 0 0 0 0 0 0 0 0 0 0 0 0 127 0"/><feOffset dy="3"/><feGaussianBlur stdDeviation="6"/><feComposite in2="hardAlpha" operator="out"/><feColorMatrix values="0 0 0 0 0.34902 0 0 0 0 0.364706 0 0 0 0 0.4 0 0 0 0.2 0"/><feBlend in2="BackgroundImageFix" result="effect1_dropShadow_52_23983"/><feBlend in="SourceGraphic" in2="effect1_dropShadow_52_23983" result="shape"/></filter><linearGradient id="c" x1="40.834" x2="80.294" y1="92" y2="34.359" gradientUnits="userSpaceOnUse"><stop stop-color="#fff"/><stop offset="1" stop-color="#EDEDED"/></linearGradient><linearGradient id="d" x1="60" x2="60" y1="27" y2="92" gradientUnits="userSpaceOnUse"><stop stop-color="#E2E2E2"/><stop offset="1" stop-color="#EDEDED"/></linearGradient><linearGradient id="f" x1="72.478" x2="86.109" y1="39.935" y2="29.196" gradientUnits="userSpaceOnUse"><stop stop-color="#fff"/><stop offset="1" stop-color="#EEEFF0"/></linearGradient><linearGradient id="h" x1="79.5" x2="79.5" y1="23" y2="42" gradientUnits="userSpaceOnUse"><stop stop-color="#E2E2E2"/><stop offset="1" stop-color="#EDEDED"/></linearGradient></defs></svg>